# xmcd
#
# Track frame offsets: 
#        300
#        7384
#        20230
#        48437
#        62161
#        81767
#        95927
#        112752
#        126033
#        148065
#        161043
#        175887
#
# Disc length: 2408 seconds
#
# Revision: 3
# Processed by: cddbd v1.5.2PL0 Copyright (c) Steve Scherf et al.
# Submitted via: ExactAudioCopy v1.0b1
#
DISCID=ad09640c
DTITLE=T-Bone Walker - Good Feelin'
DYEAR=1968
DGENRE=
TTITLE0=Good Feelin'
TTITLE1=Every Day I Have the Blues
TTITLE2=Woman You Must Be Crazy
TTITLE3=Long Lost Lover
TTITLE4=I Wonder Why
TTITLE5=Vacation
TTITLE6=Shake It Baby
TTITLE7=Poontang
TTITLE8=Reconsider
TTITLE9=Sail On Little Girl
TTITLE10=When I Grow Up
TTITLE11=See You Next Time
EXTD=
EXTT0=
EXTT1=
EXTT2=
EXTT3=
EXTT4=
EXTT5=
EXTT6=
EXTT7=
EXTT8=
EXTT9=
EXTT10=
EXTT11=
PLAYORDER=
